<svg width="29" height="29" viewBox="0 0 29 29" fill="none" xmlns="http://www.w3.org/2000/svg">
<circle cx="14.6038" cy="14.5" r="13.2098" fill="#FE9E2A" stroke="#FE9E2A"/>
<path d="M17.0715 13.6774H15.4264V10.3871C15.4264 10.1689 15.3397 9.95968 15.1854 9.80541C15.0312 9.65115 14.822 9.56448 14.6038 9.56448C14.3856 9.56448 14.1764 9.65115 14.0221 9.80541C13.8679 9.95968 13.7812 10.1689 13.7812 10.3871V14.5C13.7812 14.7182 13.8679 14.9274 14.0221 15.0816C14.1764 15.2359 14.3856 15.3226 14.6038 15.3226H17.0715C17.2897 15.3226 17.4989 15.2359 17.6532 15.0816C17.8075 14.9274 17.8941 14.7182 17.8941 14.5C17.8941 14.2818 17.8075 14.0726 17.6532 13.9183C17.4989 13.7641 17.2897 13.6774 17.0715 13.6774ZM14.6038 6.27414C12.9769 6.27414 11.3865 6.75658 10.0337 7.66045C8.68101 8.56431 7.62668 9.84902 7.00409 11.3521C6.38149 12.8552 6.21859 14.5091 6.53599 16.1048C6.85339 17.7004 7.63682 19.1661 8.78723 20.3166C9.93764 21.467 11.4033 22.2504 12.999 22.5678C14.5947 22.8852 16.2486 22.7223 17.7517 22.0997C19.2548 21.4771 20.5395 20.4228 21.4433 19.07C22.3472 17.7173 22.8296 16.1269 22.8296 14.5C22.8272 12.3191 21.9598 10.2282 20.4177 8.68612C18.8755 7.14399 16.7847 6.27656 14.6038 6.27414ZM14.6038 21.0807C13.3023 21.0807 12.0299 20.6947 10.9478 19.9716C9.86557 19.2485 9.02211 18.2208 8.52403 17.0183C8.02595 15.8158 7.89563 14.4927 8.14955 13.2162C8.40347 11.9396 9.03022 10.7671 9.95054 9.84675C10.8709 8.92642 12.0434 8.29967 13.32 8.04576C14.5965 7.79184 15.9196 7.92216 17.1221 8.42024C18.3246 8.91831 19.3523 9.76177 20.0754 10.844C20.7985 11.9261 21.1845 13.1985 21.1845 14.5C21.1825 16.2447 20.4885 17.9173 19.2548 19.151C18.0211 20.3847 16.3485 21.0787 14.6038 21.0807Z" fill="white"/>
</svg>
