<svg width="29" height="29" viewBox="0 0 29 29" fill="none" xmlns="http://www.w3.org/2000/svg">
<circle cx="14.6038" cy="14.5" r="13.2098" fill="#2884BD" stroke="#2884BD"/>
<path d="M10.6123 20.6694H19.2072C19.7279 20.6694 20.1511 20.2459 20.1511 19.7255V11.0883C20.1389 10.9534 20.1007 10.8211 20.001 10.7222L15.7038 6.42476C15.6051 6.32476 15.4734 6.28877 15.3393 6.27414H10.6123C10.0917 6.27414 9.66846 6.69763 9.66846 7.21802V19.7255C9.66846 20.2459 10.0917 20.6694 10.6123 20.6694ZM10.6967 7.30237H14.8262V11.0857C14.8262 11.3696 15.0561 11.5998 15.3403 11.5998H19.1229V19.6412H10.6967V7.30237ZM15.8544 10.5716V8.02961L18.3964 10.5716H15.8544Z" fill="white"/>
<path d="M17.1632 12.8831H12.6567C12.3725 12.8831 12.1426 13.1133 12.1426 13.3972C12.1426 13.6811 12.3725 13.9113 12.6567 13.9113H17.1632C17.4474 13.9113 17.6774 13.6811 17.6774 13.3972C17.6774 13.1133 17.4474 12.8831 17.1632 12.8831ZM12.6567 11.3495H13.3229C13.6071 11.3495 13.8371 11.1193 13.8371 10.8354C13.8371 10.5515 13.6071 10.3213 13.3229 10.3213H12.6567C12.3725 10.3213 12.1426 10.5515 12.1426 10.8354C12.1426 11.1193 12.3725 11.3495 12.6567 11.3495ZM17.1632 15.1361H12.6567C12.3725 15.1361 12.1426 15.3663 12.1426 15.6502C12.1426 15.9342 12.3725 16.1644 12.6567 16.1644H17.1632C17.4474 16.1644 17.6774 15.9342 17.6774 15.6502C17.6774 15.3663 17.4474 15.1361 17.1632 15.1361ZM17.1632 17.3886H12.6567C12.3725 17.3886 12.1426 17.6188 12.1426 17.9028C12.1426 18.1867 12.3725 18.4169 12.6567 18.4169H17.1632C17.4474 18.4169 17.6774 18.1867 17.6774 17.9028C17.6774 17.6188 17.4474 17.3886 17.1632 17.3886Z" fill="white"/>
</svg>
